<svg width="400" height="500" viewBox="0 0 400 500" fill="none" xmlns="http://www.w3.org/2000/svg">
<g clip-path="url(#clip0_2_44)">
<rect width="400" height="500" fill="white"/>
<rect x="-11" y="-13" width="421" height="632" fill="#4C4372"/>
<g filter="url(#filter0_f_2_44)">
<rect x="201.33" y="-233" width="359.552" height="622.197" transform="rotate(49.2465 201.33 -233)" fill="#FD919E"/>
</g>
<g filter="url(#filter1_d_2_44)">
<path d="M160.321 126H144.447V160.722H160.321V126Z" fill="#E7E7E7"/>
<path d="M192.063 126H176.194V160.722H192.063V126Z" fill="#E7E7E7"/>
<path d="M223.805 126H207.937V160.722H223.805V126Z" fill="#E7E7E7"/>
<path d="M255.552 126H239.679V160.722H255.552V126Z" fill="#E7E7E7"/>
<path d="M160.321 339.287H144.447V374.005H160.321V339.287Z" fill="#E7E7E7"/>
<path d="M192.063 339.287H176.194V374.005H192.063V339.287Z" fill="#E7E7E7"/>
<path d="M223.805 339.287H207.937V374.005H223.805V339.287Z" fill="#E7E7E7"/>
<path d="M255.552 339.287H239.679V374.005H255.552V339.287Z" fill="#E7E7E7"/>
<path d="M324 194.447H289.282V210.321H324V194.447Z" fill="#E7E7E7"/>
<path d="M324 226.194H289.282V242.068H324V226.194Z" fill="#E7E7E7"/>
<path d="M324 257.941H289.282V273.81H324V257.941Z" fill="#E7E7E7"/>
<path d="M324 289.684H289.282V305.557H324V289.684Z" fill="#E7E7E7"/>
<path d="M110.718 194.447H75.9998V210.321H110.718V194.447Z" fill="#E7E7E7"/>
<path d="M110.718 226.194H75.9998V242.068H110.718V226.194Z" fill="#E7E7E7"/>
<path d="M110.718 257.941H75.9998V273.81H110.718V257.941Z" fill="#E7E7E7"/>
<path d="M110.718 289.684H75.9998V305.557H110.718V289.684Z" fill="#E7E7E7"/>
<path d="M199.635 248.166C202.624 248.166 204.412 246.429 204.412 243.778C204.412 241.121 202.624 239.333 199.635 239.333H194.229C194.035 239.333 193.938 239.435 193.938 239.628V247.875C193.938 248.069 194.035 248.166 194.229 248.166H199.635Z" fill="#E7E7E7"/>
<path d="M120.641 329.364H279.359V170.646H120.641V329.364ZM253.94 189.245C258.048 189.245 261.379 192.571 261.379 196.683C261.379 200.795 258.048 204.121 253.94 204.121C249.833 204.121 246.502 200.795 246.502 196.683C246.503 192.571 249.833 189.245 253.94 189.245ZM253.94 297.127C258.048 297.127 261.379 300.453 261.379 304.565C261.379 308.676 258.048 312.003 253.94 312.003C249.833 312.003 246.502 308.676 246.502 304.565C246.503 300.453 249.833 297.127 253.94 297.127ZM216.867 233.687C216.867 233.401 217.06 233.207 217.351 233.207H223.478C223.769 233.207 223.963 233.401 223.963 233.687V254.149C223.963 258.057 226.134 260.275 229.461 260.275C232.741 260.275 234.917 258.058 234.917 254.149V233.687C234.917 233.401 235.11 233.207 235.397 233.207H241.523C241.814 233.207 242.003 233.401 242.003 233.687V253.959C242.003 262.109 236.797 266.549 229.46 266.549C222.082 266.549 216.867 262.109 216.867 253.959V233.687ZM186.847 233.687C186.847 233.401 187.041 233.207 187.332 233.207H200.069C207.211 233.207 211.503 237.504 211.503 243.778C211.503 249.949 207.16 254.292 200.069 254.292H194.229C194.035 254.292 193.938 254.389 193.938 254.583V265.537C193.938 265.823 193.749 266.017 193.458 266.017H187.332C187.041 266.017 186.847 265.823 186.847 265.537V233.687ZM157.216 240.737C158.953 235.378 163.152 232.68 168.895 232.68C174.443 232.68 178.495 235.378 180.329 239.961C180.472 240.201 180.375 240.441 180.089 240.543L174.827 242.904C174.54 243.047 174.296 242.954 174.152 242.668C173.237 240.543 171.69 238.949 168.941 238.949C166.386 238.949 164.746 240.303 164.021 242.567C163.633 243.777 163.489 244.932 163.489 249.616C163.489 254.292 163.633 255.451 164.021 256.657C164.746 258.92 166.386 260.274 168.941 260.274C171.69 260.274 173.237 258.68 174.152 256.56C174.296 256.269 174.54 256.176 174.827 256.319L180.089 258.68C180.375 258.782 180.472 259.022 180.329 259.262C178.495 263.845 174.443 266.548 168.895 266.548C163.152 266.548 158.953 263.845 157.216 258.486C156.495 256.37 156.301 254.679 156.301 249.616C156.301 244.544 156.495 242.863 157.216 240.737ZM146.059 189.245C150.171 189.245 153.501 192.576 153.501 196.683C153.501 200.79 150.171 204.121 146.059 204.121C141.947 204.121 138.621 200.79 138.621 196.683C138.621 192.576 141.947 189.245 146.059 189.245ZM146.059 297.127C150.171 297.127 153.501 300.457 153.501 304.565C153.501 308.672 150.171 312.003 146.059 312.003C141.947 312.003 138.621 308.672 138.621 304.565C138.621 300.457 141.947 297.127 146.059 297.127Z" fill="#E7E7E7"/>
</g>
</g>
<defs>
<filter id="filter0_f_2_44" x="-416" y="-379" width="998.048" height="970.544" filterUnits="userSpaceOnUse" color-interpolation-filters="sRGB">
<feFlood flood-opacity="0" result="BackgroundImageFix"/>
<feBlend mode="normal" in="SourceGraphic" in2="BackgroundImageFix" result="shape"/>
<feGaussianBlur stdDeviation="73" result="effect1_foregroundBlur_2_44"/>
</filter>
<filter id="filter1_d_2_44" x="75.9998" y="126" width="263" height="263.005" filterUnits="userSpaceOnUse" color-interpolation-filters="sRGB">
<feFlood flood-opacity="0" result="BackgroundImageFix"/>
<feColorMatrix in="SourceAlpha" type="matrix" values="0 0 0 0 0 0 0 0 0 0 0 0 0 0 0 0 0 0 127 0" result="hardAlpha"/>
<feOffset dx="11" dy="11"/>
<feGaussianBlur stdDeviation="2"/>
<feComposite in2="hardAlpha" operator="out"/>
<feColorMatrix type="matrix" values="0 0 0 0 0 0 0 0 0 0 0 0 0 0 0 0 0 0 0.25 0"/>
<feBlend mode="normal" in2="BackgroundImageFix" result="effect1_dropShadow_2_44"/>
<feBlend mode="normal" in="SourceGraphic" in2="effect1_dropShadow_2_44" result="shape"/>
</filter>
<clipPath id="clip0_2_44">
<rect width="400" height="500" fill="white"/>
</clipPath>
</defs>
</svg>
