<svg width="400" height="500" viewBox="0 0 400 500" fill="none" xmlns="http://www.w3.org/2000/svg">
<g clip-path="url(#clip0_2_19)">
<rect width="400" height="500" fill="white"/>
<rect x="-11" y="-13" width="421" height="632" fill="#4C4372"/>
<g filter="url(#filter0_f_2_19)">
<rect x="201.33" y="-233" width="359.552" height="622.197" transform="rotate(49.2465 201.33 -233)" fill="#FD919E"/>
</g>
<g filter="url(#filter1_d_2_19)">
<path d="M81.0661 269.18C74.2776 275.972 74.3168 287.057 81.1547 293.895L156.104 368.845C159.427 372.169 163.845 374 168.542 374H168.544C173.19 374 177.548 372.201 180.817 368.932L273.451 276.298L173.7 176.549L81.0661 269.18ZM124.669 269.851C123.065 269.851 121.557 269.227 120.423 268.093L119.562 267.23C118.428 266.097 117.803 264.59 117.803 262.986C117.803 261.381 118.428 259.874 119.562 258.74L166.856 211.447C167.99 210.313 169.498 209.687 171.102 209.687C172.706 209.687 174.214 210.313 175.349 211.447L176.208 212.306C178.549 214.647 178.549 218.457 176.208 220.798L128.915 268.091C127.78 269.227 126.272 269.851 124.669 269.851Z" fill="#E7E7E7"/>
<path d="M322.39 200.55L249.448 127.607C248.411 126.571 247.037 126 245.581 126C244.12 126 242.744 126.571 241.707 127.607L192.584 176.73L204.015 188.158L245.577 146.596L303.403 204.421L261.839 245.985L273.269 257.413L322.391 208.292C323.424 207.259 323.995 205.888 324 204.433C324.003 202.972 323.432 201.592 322.39 200.55Z" fill="#E7E7E7"/>
<path d="M221.994 185.352L238.646 202.005L255.19 185.46L238.538 168.808L221.994 185.352Z" fill="#E7E7E7"/>
<path d="M281.163 211.275L264.619 194.733L248.074 211.275L264.619 227.819L281.163 211.275Z" fill="#E7E7E7"/>
</g>
</g>
<defs>
<filter id="filter0_f_2_19" x="-416" y="-379" width="998.048" height="970.544" filterUnits="userSpaceOnUse" color-interpolation-filters="sRGB">
<feFlood flood-opacity="0" result="BackgroundImageFix"/>
<feBlend mode="normal" in="SourceGraphic" in2="BackgroundImageFix" result="shape"/>
<feGaussianBlur stdDeviation="73" result="effect1_foregroundBlur_2_19"/>
</filter>
<filter id="filter1_d_2_19" x="76.0004" y="126" width="263" height="263" filterUnits="userSpaceOnUse" color-interpolation-filters="sRGB">
<feFlood flood-opacity="0" result="BackgroundImageFix"/>
<feColorMatrix in="SourceAlpha" type="matrix" values="0 0 0 0 0 0 0 0 0 0 0 0 0 0 0 0 0 0 127 0" result="hardAlpha"/>
<feOffset dx="11" dy="11"/>
<feGaussianBlur stdDeviation="2"/>
<feComposite in2="hardAlpha" operator="out"/>
<feColorMatrix type="matrix" values="0 0 0 0 0 0 0 0 0 0 0 0 0 0 0 0 0 0 0.25 0"/>
<feBlend mode="normal" in2="BackgroundImageFix" result="effect1_dropShadow_2_19"/>
<feBlend mode="normal" in="SourceGraphic" in2="effect1_dropShadow_2_19" result="shape"/>
</filter>
<clipPath id="clip0_2_19">
<rect width="400" height="500" fill="white"/>
</clipPath>
</defs>
</svg>
